<svg width="32" height="32" viewBox="0 0 32 32" fill="none" aria-hidden="true" focusable="false">
<path fill-rule="evenodd" clip-rule="evenodd" d="M10 6H22C24.2091 6 26 7.79086 26 10V22C26 24.2091 24.2091 26 22 26H10C7.79086 26 6 24.2091 6 22V10C6 7.79086 7.79086 6 10 6ZM4 10C4 6.68629 6.68629 4 10 4H22C25.3137 4 28 6.68629 28 10V22C28 25.3137 25.3137 28 22 28H10C6.68629 28 4 25.3137 4 22V10ZM10 21C9.44772 21 9 21.4477 9 22C9 22.5523 9.44772 23 10 23H22C22.5523 23 23 22.5523 23 22C23 21.4477 22.5523 21 22 21H10Z" fill="white"/>
</svg>
